# xmcd
# Track frame offsets:
# 150
# 14190
# 27140
# 41620
# 54700
# 68980
# 87160
# 88650
# 111740
# 127960
# 148380
#
# Disc length: 2260 seconds
# Revision: 0
# Processed by: cddbd v1.5.1PL2 Copyright (c) Steve Scherf et al.
# Submitted via: VisiTrax 2.10.0.248 - For more info visit www.synapsa.com
#
DISCID=a408d20b
DTITLE=John Denver - John Denver's Greatest Hits
DYEAR=1900
DGENRE=
TTITLE0=Take Me Home Country Roads
TTITLE1=Follow Me
TTITLE2=Starwood In Aspen
TTITLE3=For Baby (For Bobbie)
TTITLE4=Rhymes and Reasons
TTITLE5=Leaving On A Jet Plane
TTITLE6=The Eagle and the Hawk
TTITLE7=Sunshine On My Shoulder
TTITLE8=Goodbye Again
TTITLE9=Poems, Prayers and Promises
TTITLE10=Rocky Mountain High
EXTD=
EXTT0=
EXTT1=
EXTT2=
EXTT3=
EXTT4=
EXTT5=
EXTT6=
EXTT7=
EXTT8=
EXTT9=
EXTT10=
PLAYORDER=
